<?xml version="1.0" encoding="utf-8"?>
<!-- Generator: Adobe Illustrator 16.0.0, SVG Export Plug-In . SVG Version: 6.00 Build 0)  -->
<!DOCTYPE svg PUBLIC "-//W3C//DTD SVG 1.1//EN" "http://www.w3.org/Graphics/SVG/1.1/DTD/svg11.dtd">
<svg version="1.1" id="Layer_1" xmlns="http://www.w3.org/2000/svg" xmlns:xlink="http://www.w3.org/1999/xlink" x="0px" y="0px"
	 width="960px" height="560px" viewBox="0 0 960 560" enable-background="new 0 0 960 560" xml:space="preserve">
<path stroke="#BA54FF" stroke-miterlimit="10" d="M759.58,202.466c-19.829,0-38.882,3.326-56.7,9.357
	c-13.816-30.63-29.963-66.469-48.869-108.539l12.062-33.17l41.459-0.758V34.678H551.476c-13.651,18.678,5.528,18.596,74.638,33.919
	l-12.063,33.929H305.715c20.771-72.545,9.038-67.263,102.526-67.099V0C279.544,1.252,301.859-13.25,232.942,208.433
	c-10.545-1.964-21.41-3.042-32.531-3.042c-97.765,0-177.3,79.544-177.3,177.309c0,97.766,79.535,177.301,177.3,177.301
	c97.774,0,177.31-79.535,177.31-177.301c0-73.156-44.547-136.107-107.936-163.155c3.856-12.135,8.005-25.092,12.455-38.936
	c259.385,273.595,162.077,229.239,301.656,234.786c0.667,0,1.307-0.009,1.974-0.019c16.53,80.77,88.144,141.709,173.71,141.709
	c97.773,0,177.31-79.535,177.31-177.301C936.89,282.02,857.354,202.466,759.58,202.466z M336.244,382.699
	c0,74.894-60.931,135.824-135.824,135.824c-74.894,0-135.833-60.931-135.833-135.824c0-74.893,60.931-135.824,135.824-135.824
	c6.753,0,13.387,0.512,19.875,1.471c-43.267,136.445-38.077,120.911-38.342,132.416c-0.21,9.704,7.621,17.398,17.471,18.065
	c17.654-1.791,13.679,1.133,57.797-139.452C303.814,280.904,336.244,328.064,336.244,382.699z M511.324,374.247L296.796,140.466
	l301.721-0.539L511.324,374.247z M582.288,379.154l-32.987-0.101l85.594-224.68l33.207,73.578
	C616.875,258.928,582.517,315.089,582.288,379.154z M685.335,266.129l51.208,113.464l-112.778-0.32
	C623.947,331.976,648.428,290.316,685.335,266.129z M759.58,515.608c-62.631,0-115.483-42.637-131.109-100.405
	c141.371,0.137,153.98,7.383,155.955-17.143c-0.192-7.146-2.852-12.044-64.385-148.215c12.509-3.819,25.786-5.894,39.529-5.894
	c74.894,0,135.824,60.931,135.824,135.833C895.395,454.688,834.473,515.608,759.58,515.608z"/>
</svg>
