<svg id="Layer_1" data-name="Layer 1" xmlns="http://www.w3.org/2000/svg" viewBox="0 0 913.78 560"><defs><style>.cls-1{fill:none;}.cls-2{fill:#03350f;}.cls-3{fill:#6b9ea0;}</style></defs><title>bikeicon</title><path class="cls-1" d="M668.1,228L634.9,154.37,549.3,379.05l33,0.1A177.38,177.38,0,0,1,668.1,228Z" transform="translate(-23.11)"/><polygon class="cls-1" points="273.69 140.47 488.21 374.25 575.41 139.93 273.69 140.47"/><path class="cls-1" d="M336.24,382.7c0,74.89-60.93,135.82-135.82,135.82S64.59,457.59,64.59,382.7s60.93-135.82,135.82-135.82a136.8,136.8,0,0,1,19.85,1.46h0c-0.3.94-.6,1.87-0.89,2.79-0.78,2.43-1.53,4.82-2.27,7.15C177.27,384,182.2,369.54,181.94,380.76c-0.21,9.71,7.63,17.4,17.48,18.07l1.66-.17,0.54,0,1.32-.15,0.48-.06c0.72-.11,1.41-0.23,2.06-0.38l0.5-.13a10.61,10.61,0,0,0,3.31-1.54l0.26-.19a16.36,16.36,0,0,0,4.06-4.82c0.09-.14.18-0.28,0.26-0.43s0.18-.3.26-0.45l0.5-.9a116.34,116.34,0,0,0,6.1-14.66c0.21-.58.42-1.17,0.63-1.78s0.48-1.38.73-2.1c0.16-.47.33-0.94,0.49-1.42,0.27-.79.54-1.6,0.82-2.44,0.22-.62.43-1.25,0.64-1.9,0.14-.41.27-0.82,0.41-1.24,0.28-.84.56-1.7,0.85-2.59,1.09-3.32,2.25-7,3.51-10.91l1-3.28c0.24-.78.5-1.58,0.75-2.4,0.18-.56.36-1.14,0.54-1.72,0.49-1.54,1-3.12,1.49-4.75,0.19-.62.39-1.25,0.59-1.89q1.62-5.17,3.41-11,0.52-1.66,1-3.39,1.08-3.46,2.22-7.15c0.44-1.43.9-2.9,1.36-4.38q2.63-8.48,5.6-18.06l1.27-4.08c0.43-1.39.87-2.79,1.31-4.22q2.66-8.5,5.59-17.89c0.19-.62.39-1.23,0.58-1.86l0.28-.89c0.29-.93.59-1.86,0.88-2.8,0.14-.47.29-0.94,0.44-1.41h0A135.91,135.91,0,0,1,336.24,382.7Z" transform="translate(-23.11)"/><path class="cls-1" d="M685.34,266.13a135.81,135.81,0,0,0-61.57,113.15l112.78,0.32Z" transform="translate(-23.11)"/><path class="cls-1" d="M759.57,243.95A135.2,135.2,0,0,0,720,249.84C781.57,386,784.24,390.91,784.43,398.06c-2,24.53-14.58,17.28-156,17.14C644.1,473,696.95,515.61,759.58,515.61c74.89,0,135.82-60.92,135.81-135.83S834.46,243.95,759.57,243.95Z" transform="translate(-23.11)"/><path d="M377.72,382.7c0,97.77-79.54,177.3-177.31,177.3S23.11,480.47,23.11,382.7s79.54-177.31,177.3-177.31a177.78,177.78,0,0,1,32.53,3l-12.68,39.91a136.8,136.8,0,0,0-19.85-1.46c-74.89,0-135.82,60.92-135.82,135.82s60.94,135.82,135.83,135.82S336.24,457.59,336.24,382.7a135.91,135.91,0,0,0-79-123.31l12.62-39.83C333.19,246.62,377.72,309.56,377.72,382.7Z" transform="translate(-23.11)"/><path d="M685.3,266.16a135.79,135.79,0,0,0-61.53,113.07l-41.48-.1A177.42,177.42,0,0,1,668,228Z" transform="translate(-23.11)"/><line class="cls-1" x1="644.92" y1="227.99" x2="643.64" y2="225.17"/><line class="cls-1" x1="663.68" y1="269.46" x2="662.19" y2="266.16"/><line class="cls-2" x1="696.93" y1="249.84" x2="678.06" y2="208.17"/><path class="cls-1" d="M736.54,379.59L686.33,268.33l-1-2.2,0,0L668,228l0.07,0-0.7-1.55-32.5-72L549.3,379l33,0.1v0l41.48,0.1v0Z" transform="translate(-23.11)"/><polygon class="cls-1" points="273.69 140.47 488.21 374.25 575.41 139.93 273.69 140.47"/><path class="cls-1" d="M895.39,379.78c0,74.91-60.92,135.83-135.81,135.83-62.6,0-115.42-42.6-131.08-100.32l0-.09c24,0,44.35.25,61.53,0.5l1.76,0c28.36,0.41,48,.84,61.6.4,25.84-.83,30-4.82,31.07-18.06-0.19-7.15-2.86-12-64.39-148.22l0.08,0A135,135,0,0,1,759.57,244C834.46,244,895.39,304.88,895.39,379.78Z" transform="translate(-23.11)"/><path class="cls-3" d="M720,249.84l0.08,0-17.21-38h0l-4.75-10.55-3.38-7.48c-11.92-26.44-25.42-56.43-40.74-90.51l12.06-33.17,41.46-.75V34.68H551.48C537.83,53.36,557,53.27,626.11,68.6L614,102.53H305.72c20.77-72.55,9-67.27,102.52-67.1V0c-126.86,1.23-107-12.84-172.41,199.1q-1.41,4.61-2.89,9.33l-12.68,39.91h0c-0.3.94-.6,1.87-0.89,2.79-0.78,2.43-1.53,4.82-2.27,7.15C177.27,384,182.2,369.54,181.94,380.76c-0.21,9.71,7.63,17.4,17.48,18.07l1.66-.17,0.54,0,1.32-.15,0.48-.06c0.72-.11,1.41-0.23,2.06-0.38l0.5-.13a10.61,10.61,0,0,0,3.31-1.54l0.26-.19a16.36,16.36,0,0,0,4.06-4.82c0.09-.14.18-0.28,0.26-0.43s0.18-.3.26-0.45l0.5-.9a116.34,116.34,0,0,0,6.1-14.66c0.2-.57.41-1.17,0.63-1.78s0.48-1.38.73-2.1c0.16-.46.32-0.94,0.49-1.42,0.27-.79.54-1.6,0.82-2.44l0.64-1.9c0.14-.41.27-0.82,0.41-1.24,0.28-.84.56-1.7,0.85-2.59,1.09-3.32,2.25-7,3.51-10.91,0.34-1.07.68-2.16,1-3.28,0.24-.78.5-1.58,0.75-2.4,0.18-.56.36-1.14,0.54-1.72,0.49-1.54,1-3.12,1.49-4.75,0.19-.62.39-1.25,0.59-1.89q1.62-5.17,3.41-11,0.51-1.66,1-3.39,1.08-3.46,2.22-7.15c0.44-1.43.89-2.9,1.36-4.38q2.63-8.48,5.6-18.06l1.27-4.08c0.43-1.39.87-2.79,1.31-4.22q2.66-8.5,5.59-17.89c0.19-.62.39-1.23,0.58-1.86l0.28-.89c0.29-.93.59-1.86,0.88-2.8,0.14-.47.29-0.94,0.44-1.41h0l12.62-39.83-0.05,0c0.33-1,.66-2.09,1-3.15q1.32-4.12,2.67-8.39,4.18-13.08,8.78-27.39C531.52,443.55,451.36,412.82,568.65,415l0-.07,59.88,0.41,0-.09c24,0,44.35.25,61.53,0.5l1.76,0c28.36,0.41,48,.84,61.6.4,25.84-.83,30-4.82,31.07-18.06C784.24,390.91,781.57,386,720,249.84ZM511.32,374.25L296.8,140.47l301.72-.54Zm112.45,5v0l-41.48-.1v0l-33-.1,85.6-224.68,32.5,72,0.7,1.55L668,228l17.27,38.17,0,0,1,2.2,50.21,111.26Z" transform="translate(-23.11)"/><path d="M568.62,414.88l59.88,0.41C644.16,473,697,515.61,759.58,515.61c74.89,0,135.82-60.92,135.81-135.83S834.46,244,759.57,244a135,135,0,0,0-39.45,5.87l-17.21-38a176.56,176.56,0,0,1,56.67-9.34c97.77,0,177.31,79.55,177.31,177.31s-79.54,177.3-177.31,177.3c-85.57,0-157.18-60.93-173.71-141.7h-2l-3.65-.14" transform="translate(-23.11)"/></svg>